<svg width="22" height="22" viewBox="0 0 22 22" fill="none" xmlns="http://www.w3.org/2000/svg">
<g clip-path="url(#clip0_904_4005)">
<path fill-rule="evenodd" clip-rule="evenodd" d="M21.9273 11.0116C21.9273 17.0495 17.0491 21.9507 10.9881 21.9507C4.92707 21.9507 0.0478516 17.0495 0.0478516 11.0116C0.0478516 4.97363 4.95014 0.0723877 10.9881 0.0723877C17.026 0.0723877 21.9273 4.97468 21.9273 11.0116Z" fill="white"/>
<path fill-rule="evenodd" clip-rule="evenodd" d="M16.7828 1.66621H13.3779V0.265259C14.6101 0.530559 15.7447 1.01397 16.7828 1.66621Z" fill="#A91F27"/>
<path fill-rule="evenodd" clip-rule="evenodd" d="M20.2128 4.99872H13.3779V3.30835H18.8349C19.3425 3.81483 19.8007 4.39472 20.2118 4.99872H20.2128Z" fill="#A91F27"/>
<path fill-rule="evenodd" clip-rule="evenodd" d="M21.661 8.35536H13.3779V6.64087H21.1062C21.3233 7.19664 21.5163 7.75136 21.661 8.35536Z" fill="#A91F27"/>
<path fill-rule="evenodd" clip-rule="evenodd" d="M21.9755 11.5914H13.3779V9.901H21.9514C21.9755 10.2387 21.9997 10.6015 21.9997 10.9633C21.9997 11.1803 21.9997 11.3733 21.9755 11.5914Z" fill="#A91F27"/>
<path fill-rule="evenodd" clip-rule="evenodd" d="M21.2751 14.9239H0.724328C0.507264 14.3933 0.338437 13.8134 0.216797 13.2335H21.7586C21.661 13.8134 21.4922 14.3933 21.2751 14.9239Z" fill="#A91F27"/>
<path fill-rule="evenodd" clip-rule="evenodd" d="M19.0788 18.4494H2.89755C2.41519 17.9429 1.98001 17.363 1.61719 16.759H20.3822C19.9963 17.363 19.5611 17.9429 19.0788 18.4494Z" fill="#A91F27"/>
<path fill-rule="evenodd" clip-rule="evenodd" d="M5.19141 20.3568H16.8069C15.1166 21.3949 13.1368 21.9989 10.9871 21.9989C8.83745 21.9989 6.88178 21.3949 5.19141 20.3568Z" fill="#A91F27"/>
<path fill-rule="evenodd" clip-rule="evenodd" d="M13.4265 11.5914H0V11.0126C0 4.92641 4.92641 0 10.9885 0C11.8337 0 12.6537 0.0964728 13.4265 0.2653V11.5914Z" fill="#1F2352"/>
<path fill-rule="evenodd" clip-rule="evenodd" d="M6.59221 0.91748V0.941599H7.07563L6.71385 1.2803L6.83444 1.78678L6.39927 1.49737L5.98926 1.78678L6.10985 1.2803L6.01338 1.20795C6.20737 1.11147 6.40032 1.015 6.59326 0.918529L6.59221 0.91748Z" fill="white"/>
<path fill-rule="evenodd" clip-rule="evenodd" d="M8.50098 0.941613H8.98334L9.17629 0.434082L9.36923 0.941613H9.85264L9.48982 1.28032L9.61146 1.7868L9.17629 1.49738L8.76523 1.7868L8.88687 1.28032L8.50098 0.941613Z" fill="white"/>
<path fill-rule="evenodd" clip-rule="evenodd" d="M11.3262 0.941613H11.8337L12.0025 0.434082L12.1955 0.941613H12.6778L12.3161 1.28032L12.4608 1.7868L12.0025 1.49738L11.5915 1.7868L11.7121 1.28032L11.3262 0.941613Z" fill="white"/>
<path fill-rule="evenodd" clip-rule="evenodd" d="M4.4427 2.1738H4.82964L4.95023 1.81203C4.97434 1.78791 5.02258 1.76379 5.0467 1.76379L5.21553 2.17485H5.69894L5.31305 2.51251L5.45776 3.02004L5.02258 2.73062L4.61257 3.02004L4.73316 2.51251L4.39551 2.22204L4.44374 2.1738H4.4427Z" fill="white"/>
<path fill-rule="evenodd" clip-rule="evenodd" d="M7.10059 2.17379H7.58295L7.7759 1.66626L7.96884 2.17379H8.45225L8.09048 2.51145L8.21107 3.01898L7.7759 2.72851L7.36589 3.01898L7.48648 2.51145L7.10059 2.17379Z" fill="white"/>
<path fill-rule="evenodd" clip-rule="evenodd" d="M9.87695 2.17379H10.3604L10.5533 1.66626L10.7463 2.17379H11.2297L10.8668 2.51145L10.9885 3.01898L10.5533 2.72851L10.1423 3.01898L10.2639 2.51145L9.87695 2.17379Z" fill="white"/>
<path fill-rule="evenodd" clip-rule="evenodd" d="M3.18827 3.2602H3.45357L3.57416 2.87326C3.59828 2.84914 3.6224 2.82502 3.64652 2.8009L3.83946 3.2602H4.32287L3.93698 3.59785L4.08169 4.10434L3.64756 3.81492L3.21239 4.10434L3.33298 3.59785L3.0918 3.35667C3.11592 3.33255 3.16415 3.28432 3.18827 3.2602Z" fill="white"/>
<path fill-rule="evenodd" clip-rule="evenodd" d="M5.72363 3.26016H6.20705L6.39999 2.72852L6.59294 3.26016H7.0753L6.71353 3.59782L6.83412 4.10535L6.39999 3.81593L5.98893 4.10535L6.10952 3.59782L5.72363 3.26016Z" fill="white"/>
<path fill-rule="evenodd" clip-rule="evenodd" d="M8.50098 3.26016H8.98334L9.17629 2.72852L9.36923 3.26016H9.85264L9.48982 3.59782L9.61146 4.10535L9.17629 3.81593L8.76523 4.10535L8.88687 3.59782L8.50098 3.26016Z" fill="white"/>
<path fill-rule="evenodd" clip-rule="evenodd" d="M11.3262 3.26016H11.8337L12.0025 2.72852L12.1955 3.26016H12.6778L12.3161 3.59782L12.4608 4.10535L12.0025 3.81593L11.5915 4.10535L11.7121 3.59782L11.3262 3.26016Z" fill="white"/>
<path fill-rule="evenodd" clip-rule="evenodd" d="M2.26993 4.29834L2.34229 4.49129H2.84877L2.46183 4.82999L2.60759 5.33752L2.14829 5.0481L1.73828 5.33752L1.85887 4.87823C1.97946 4.68528 2.12522 4.49129 2.26888 4.29834H2.26993Z" fill="white"/>
<path fill-rule="evenodd" clip-rule="evenodd" d="M4.34668 4.49117H4.83009L4.99892 3.96057L5.21598 4.49117H5.6994L5.3135 4.82988L5.45821 5.33636L5.02304 5.04694L4.61198 5.33636L4.73362 4.82988L4.34668 4.49117Z" fill="white"/>
<path fill-rule="evenodd" clip-rule="evenodd" d="M7.10059 4.49117H7.58295L7.7759 3.96057L7.96884 4.49117H8.45225L8.09048 4.82988L8.21107 5.33636L7.7759 5.04694L7.36589 5.33636L7.48648 4.82988L7.10059 4.49117Z" fill="white"/>
<path fill-rule="evenodd" clip-rule="evenodd" d="M9.87695 4.49117H10.3604L10.5533 3.96057L10.7463 4.49117H11.2297L10.8668 4.82988L10.9885 5.33636L10.5533 5.04694L10.1423 5.33636L10.2639 4.82988L9.87695 4.49117Z" fill="white"/>
<path fill-rule="evenodd" clip-rule="evenodd" d="M1.40084 5.60278H1.44907L1.3526 5.69926L1.40084 5.60278ZM1.13554 6.11031L1.23201 6.44797L1.03906 6.32738C1.06318 6.25502 1.11142 6.18267 1.13554 6.11031Z" fill="white"/>
<path fill-rule="evenodd" clip-rule="evenodd" d="M2.96973 5.60275H3.45314L3.62197 5.09521L3.83903 5.60275H4.32244L3.93655 5.9404L4.08126 6.44793L3.64609 6.15746L3.21196 6.44793L3.33255 5.9404L2.96973 5.60275Z" fill="white"/>
<path fill-rule="evenodd" clip-rule="evenodd" d="M5.72363 5.60275H6.20705L6.39999 5.09521L6.59294 5.60275H7.0753L6.71353 5.9404L6.83412 6.44793L6.39999 6.15746L5.98893 6.44793L6.10952 5.9404L5.72363 5.60275Z" fill="white"/>
<path fill-rule="evenodd" clip-rule="evenodd" d="M8.50098 5.60275H8.98334L9.17629 5.09521L9.36923 5.60275H9.85264L9.48982 5.9404L9.61146 6.44793L9.17629 6.15746L8.76523 6.44793L8.88687 5.9404L8.50098 5.60275Z" fill="white"/>
<path fill-rule="evenodd" clip-rule="evenodd" d="M11.3262 5.60275H11.8337L12.0025 5.09521L12.1955 5.60275H12.6778L12.3161 5.9404L12.4608 6.44793L12.0025 6.15746L11.5915 6.44793L11.7121 5.9404L11.3262 5.60275Z" fill="white"/>
<path fill-rule="evenodd" clip-rule="evenodd" d="M1.47363 6.83387H1.98012L2.14999 6.32739L2.34294 6.83387H2.84942L2.46353 7.17258L2.60824 7.67906L2.14999 7.38964L1.73893 7.67906L1.85952 7.17258L1.47363 6.83387Z" fill="white"/>
<path fill-rule="evenodd" clip-rule="evenodd" d="M4.34668 6.83387H4.83009L4.99892 6.32739L5.21598 6.83387H5.6994L5.3135 7.17258L5.45821 7.67906L5.02304 7.38964L4.61198 7.67906L4.73362 7.17258L4.34668 6.83387Z" fill="white"/>
<path fill-rule="evenodd" clip-rule="evenodd" d="M7.10059 6.83387H7.58295L7.7759 6.32739L7.96884 6.83387H8.45225L8.09048 7.17258L8.21107 7.67906L7.7759 7.38964L7.36589 7.67906L7.48648 7.17258L7.10059 6.83387Z" fill="white"/>
<path fill-rule="evenodd" clip-rule="evenodd" d="M9.87695 6.83387H10.3604L10.5533 6.32739L10.7463 6.83387H11.2297L10.8668 7.17258L10.9885 7.67906L10.5533 7.38964L10.1423 7.67906L10.2639 7.17258L9.87695 6.83387Z" fill="white"/>
<path fill-rule="evenodd" clip-rule="evenodd" d="M0.433755 7.92123H0.602582L0.77141 7.4137L0.964355 7.92123H1.44777L1.08495 8.25993L1.2307 8.76641L0.77141 8.47699L0.360352 8.76641L0.480943 8.25993L0.360352 8.16346C0.38447 8.06699 0.408588 7.99463 0.432706 7.92228L0.433755 7.92123Z" fill="white"/>
<path fill-rule="evenodd" clip-rule="evenodd" d="M2.96973 7.92123H3.45314L3.62197 7.4137L3.83903 7.92123H4.32244L3.93655 8.25888L4.08126 8.76641L3.64609 8.47595L3.21196 8.76641L3.33255 8.25888L2.96973 7.92123Z" fill="white"/>
<path fill-rule="evenodd" clip-rule="evenodd" d="M5.72363 7.92123H6.20705L6.39999 7.4137L6.59294 7.92123H7.0753L6.71353 8.25888L6.83412 8.76641L6.39999 8.47595L5.98893 8.76641L6.10952 8.25888L5.72363 7.92123Z" fill="white"/>
<path fill-rule="evenodd" clip-rule="evenodd" d="M8.50098 7.92123H8.98334L9.17629 7.4137L9.36923 7.92123H9.85264L9.48982 8.25888L9.61146 8.76641L9.17629 8.47595L8.76523 8.76641L8.88687 8.25888L8.50098 7.92123Z" fill="white"/>
<path fill-rule="evenodd" clip-rule="evenodd" d="M11.3262 7.92123H11.8337L12.0025 7.4137L12.1955 7.92123H12.6778L12.3161 8.25888L12.4608 8.76641L12.0025 8.47595L11.5915 8.76641L11.7121 8.25888L11.3262 7.92123Z" fill="white"/>
<path fill-rule="evenodd" clip-rule="evenodd" d="M0.0966797 10.2146H0.604211L0.773038 9.70813L0.965984 10.2146H1.4494L1.08657 10.5533L1.23233 11.0598L0.773038 10.7704L0.363029 11.0598L0.48362 10.5533L0.0966797 10.2146Z" fill="white"/>
<path fill-rule="evenodd" clip-rule="evenodd" d="M2.96973 10.2146H3.45314L3.62197 9.70813L3.83903 10.2146H4.32244L3.93655 10.5533L4.08126 11.0598L3.64609 10.7704L3.21196 11.0598L3.33255 10.5533L2.96973 10.2146Z" fill="white"/>
<path fill-rule="evenodd" clip-rule="evenodd" d="M5.72363 10.2146H6.20705L6.39999 9.70813L6.59294 10.2146H7.0753L6.71353 10.5533L6.83412 11.0598L6.39999 10.7704L5.98893 11.0598L6.10952 10.5533L5.72363 10.2146Z" fill="white"/>
<path fill-rule="evenodd" clip-rule="evenodd" d="M8.50098 10.2146H8.98334L9.17629 9.70813L9.36923 10.2146H9.85264L9.48982 10.5533L9.61146 11.0598L9.17629 10.7704L8.76523 11.0598L8.88687 10.5533L8.50098 10.2146Z" fill="white"/>
<path fill-rule="evenodd" clip-rule="evenodd" d="M11.3262 10.2146H11.8337L12.0025 9.70813L12.1955 10.2146H12.6778L12.3161 10.5533L12.4608 11.0598L12.0025 10.7704L11.5915 11.0598L11.7121 10.5533L11.3262 10.2146Z" fill="white"/>
<path fill-rule="evenodd" clip-rule="evenodd" d="M1.47363 9.15231H1.98012L2.14999 8.64478L2.34294 9.15231H2.84942L2.46353 9.48996L2.60824 9.99749L2.14999 9.70807L1.73893 9.99749L1.85952 9.48996L1.47363 9.15231Z" fill="white"/>
<path fill-rule="evenodd" clip-rule="evenodd" d="M4.34668 9.15231H4.83009L4.99892 8.64478L5.21598 9.15231H5.6994L5.3135 9.48996L5.45821 9.99749L5.02304 9.70807L4.61198 9.99749L4.73362 9.48996L4.34668 9.15231Z" fill="white"/>
<path fill-rule="evenodd" clip-rule="evenodd" d="M7.10059 9.15231H7.58295L7.7759 8.64478L7.96884 9.15231H8.45225L8.09048 9.48996L8.21107 9.99749L7.7759 9.70807L7.36589 9.99749L7.48648 9.48996L7.10059 9.15231Z" fill="white"/>
<path fill-rule="evenodd" clip-rule="evenodd" d="M9.87695 9.15231H10.3604L10.5533 8.64478L10.7463 9.15231H11.2297L10.8668 9.48996L10.9885 9.99749L10.5533 9.70807L10.1423 9.99749L10.2639 9.48996L9.87695 9.15231Z" fill="white"/>
</g>
<defs>
<clipPath id="clip0_904_4005">
<rect width="22" height="22" fill="white"/>
</clipPath>
</defs>
</svg>
