<svg width="22" height="22" viewBox="0 0 22 22" fill="none" xmlns="http://www.w3.org/2000/svg">
<g clip-path="url(#clip0_904_3983)">
<path d="M18.6261 11C18.6261 17.0751 15.188 22 10.9469 22C6.70574 22 3.26758 17.0751 3.26758 11C3.26758 4.92492 6.70574 0 10.9469 0C15.188 0 18.6261 4.92492 18.6261 11Z" fill="white"/>
<path d="M9.13285 0.285522H0V7.28237H9.13285V0.285522Z" fill="#00237C"/>
<path d="M2.50709 0.285522H0V2.48593L12.2293 14.0529L15.2062 12.297L2.50709 0.285522Z" fill="white"/>
<path d="M0 0.469116V1.98024L12.3916 13.7022L12.8771 12.6478L0 0.469116Z" fill="#CF142B"/>
<path d="M22 0.285522H12.8672V7.28237H22V0.285522Z" fill="#00237C"/>
<path d="M19.4945 0.285522H22.0002V2.48593L9.77084 14.0529L6.79395 12.297L19.4945 0.285522Z" fill="white"/>
<path d="M22.0002 0.469116V1.98024L9.60852 13.7022L9.12305 12.6478L22.0002 0.469116Z" fill="#CF142B"/>
<path d="M22 14.3853H12.8672V21.3821H22V14.3853Z" fill="#00237C"/>
<path d="M19.4945 21.3821H22.0002V19.1817L9.77084 7.61475L6.79395 9.37059L19.4945 21.3821Z" fill="white"/>
<path d="M22.0002 21.1985V19.6853L9.60852 7.96545L9.12305 9.01977L22.0002 21.1985Z" fill="#CF142B"/>
<path d="M9.13285 14.3853H0V21.3821H9.13285V14.3853Z" fill="#00237C"/>
<path d="M2.50709 21.3821H0V19.1817L12.2293 7.61475L15.2062 9.37059L2.50709 21.3821Z" fill="white"/>
<path d="M0 21.1985V19.6853L12.3916 7.96545L12.8771 9.01977L0 21.1985Z" fill="#CF142B"/>
<path d="M22 7.28237H12.8857V0.285522H9.07733V7.28237H0V14.2262H9.07733V21.3821H12.8857V14.2262H22V7.28237Z" fill="white"/>
<path d="M22 8.70173H12.077V0.285522H9.88598V8.70173H0V12.8068H9.88598V21.3821H12.077V12.8068H22V8.70173Z" fill="#CF142B"/>
</g>
<defs>
<clipPath id="clip0_904_3983">
<rect width="22" height="22" rx="11" fill="white"/>
</clipPath>
</defs>
</svg>
