<svg width="22" height="22" viewBox="0 0 22 22" fill="none" xmlns="http://www.w3.org/2000/svg">
<g clip-path="url(#clip0_904_3958)">
<path d="M14.1449 20.3595C19.3209 18.6121 22.09 13.0299 20.33 7.89124C18.57 2.75257 12.9473 0.00336509 7.77131 1.75071C2.59536 3.49805 -0.173805 9.08026 1.58622 14.2189C3.34624 19.3576 8.96896 22.1068 14.1449 20.3595Z" fill="white"/>
<path d="M22 0H0V22H22V0Z" fill="#00237C"/>
<path d="M10.9922 2.86951L11.2766 3.73675H12.1942L11.451 4.27058L11.7354 5.13783L10.9922 4.60218L10.2508 5.13783L10.5334 4.27058L9.79199 3.73675H10.7096L10.9922 2.86951Z" fill="#FFCC00"/>
<path d="M10.9922 16.8639L11.2766 17.7293H12.1942L11.451 18.265L11.7354 19.1304L10.9922 18.5947L10.2508 19.1304L10.5334 18.265L9.79199 17.7293H10.7096L10.9922 16.8639Z" fill="#FFCC00"/>
<path d="M18.0546 9.8894L18.3372 10.7567H19.2548L18.5115 11.2905L18.796 12.1577L18.0546 11.6221L17.3113 12.1577L17.5958 11.2905L16.8525 10.7567H17.7701L18.0546 9.8894Z" fill="#FFCC00"/>
<path d="M3.94532 9.86572L4.22977 10.733H5.14552L4.40411 11.2686L4.68673 12.134L3.94532 11.5984L3.20391 12.134L3.48653 11.2686L2.74512 10.733H3.6627L3.94532 9.86572Z" fill="#FFCC00"/>
<path d="M4.88477 6.32214L5.16922 7.18757H6.08681L5.34356 7.72322L5.62801 8.58864L4.88477 8.05299L4.14336 8.58864L4.42598 7.72322L3.68457 7.18757H4.60215L4.88477 6.32214Z" fill="#FFCC00"/>
<path d="M7.39942 3.75684L7.68204 4.62226H8.59962L7.85821 5.15791L8.14083 6.02334L7.39942 5.48768L6.65801 6.02334L6.94063 5.15791L6.19922 4.62226H7.11497L7.39942 3.75684Z" fill="#FFCC00"/>
<path d="M16.9843 6.32214L17.2669 7.18757H18.1845L17.4431 7.72322L17.7257 8.58864L16.9843 8.05299L16.241 8.58864L16.5255 7.72322L15.7822 7.18757H16.6998L16.9843 6.32214Z" fill="#FFCC00"/>
<path d="M14.4463 3.75684L14.7307 4.62226H15.6465L14.9051 5.15791L15.1877 6.02334L14.4463 5.48768L13.7049 6.02334L13.9875 5.15791L13.2461 4.62226H14.1637L14.4463 3.75684Z" fill="#FFCC00"/>
<path d="M4.88477 13.3184L5.16922 14.1838H6.08681L5.34356 14.7194L5.62801 15.5849L4.88477 15.051L4.14336 15.5849L4.42598 14.7194L3.68457 14.1838H4.60215L4.88477 13.3184Z" fill="#FFCC00"/>
<path d="M7.39942 15.8145L7.68204 16.6799H8.59962L7.85821 17.2155L8.14083 18.081L7.39942 17.5453L6.65801 18.081L6.94063 17.2155L6.19922 16.6799H7.11497L7.39942 15.8145Z" fill="#FFCC00"/>
<path d="M16.9843 13.3184L17.2669 14.1838H18.1845L17.4431 14.7194L17.7257 15.5849L16.9843 15.051L16.241 15.5849L16.5255 14.7194L15.7822 14.1838H16.6998L16.9843 13.3184Z" fill="#FFCC00"/>
<path d="M14.4463 15.8145L14.7307 16.6799H15.6465L14.9051 17.2155L15.1877 18.081L14.4463 17.5453L13.7049 18.081L13.9875 17.2155L13.2461 16.6799H14.1637L14.4463 15.8145Z" fill="#FFCC00"/>
</g>
<defs>
<clipPath id="clip0_904_3958">
<rect width="22" height="22" rx="11" fill="white"/>
</clipPath>
</defs>
</svg>
