<svg width="22" height="22" viewBox="0 0 22 22" fill="none" xmlns="http://www.w3.org/2000/svg">
<g clip-path="url(#clip0_904_3976)">
<path d="M11.0022 22.0044C17.0786 22.0044 22.0044 17.0786 22.0044 11.0022C22.0044 4.92586 17.0786 0 11.0022 0C4.92586 0 0 4.92586 0 11.0022C0 17.0786 4.92586 22.0044 11.0022 22.0044Z" fill="#E30A17"/>
<path d="M10.6602 16.2014C7.7875 16.2014 5.46097 13.8749 5.46097 11.0022C5.46097 8.12959 7.7875 5.80305 10.6602 5.80305C12.1831 5.80305 13.5506 6.46461 14.5052 7.508C13.3375 5.64321 11.2684 4.40002 8.90637 4.40002C5.26117 4.40002 2.30859 7.3526 2.30859 10.9978C2.30859 14.643 5.26117 17.5956 8.90637 17.5956C11.2684 17.5956 13.3375 16.3524 14.5052 14.4876C13.555 15.5354 12.1875 16.1926 10.6602 16.1926V16.2014Z" fill="white"/>
<path d="M15.8903 8.02747L17.3422 9.81233L19.4867 8.97762L18.2435 10.9134L19.6953 12.6939L17.4709 12.1078L16.2233 14.0436L16.0945 11.7437L13.8701 11.1576L16.0191 10.3274L15.8903 8.02747Z" fill="white"/>
</g>
<defs>
<clipPath id="clip0_904_3976">
<rect width="22" height="22" fill="white"/>
</clipPath>
</defs>
</svg>
