<svg width="68" height="68" viewBox="0 0 68 68" fill="none" xmlns="http://www.w3.org/2000/svg">
<path d="M33.7187 3.71875C25.765 3.72781 18.1396 6.89961 12.5155 12.5383C6.89138 18.177 3.72778 25.8222 3.71875 33.7965C5.36682 73.6987 62.0767 73.6871 63.7187 33.7962C63.7096 25.8219 60.546 18.1769 54.9219 12.5382C49.2977 6.89957 41.6724 3.7278 33.7187 3.71875V3.71875ZM33.7187 60.7082C26.6022 60.7 19.7796 57.8621 14.7475 52.8169C9.71536 47.7718 6.88476 40.9314 6.87664 33.7965C8.35138 -1.90543 59.0915 -1.89507 60.5609 33.7967C60.5527 40.9316 57.722 47.7719 52.6899 52.817C47.6578 57.8621 40.8352 60.7 33.7187 60.7082V60.7082Z" fill="#049C6B"/>
<path d="M45.1491 25.9384L30.9805 39.8169L24.4481 33.4188C24.1538 33.1387 23.7588 32.9834 23.3485 32.9863C22.9381 32.9893 22.5455 33.1503 22.2553 33.4345C21.9652 33.7187 21.8009 34.1033 21.7979 34.5053C21.7949 34.9072 21.9535 35.2941 22.2394 35.5824L29.8762 43.0628C30.1702 43.3476 30.5671 43.5073 30.9806 43.5073C31.3941 43.5073 31.7909 43.3476 32.085 43.0628L47.3579 28.1019C47.6431 27.8134 47.8011 27.4267 47.7978 27.0251C47.7945 26.6236 47.6302 26.2394 47.3403 25.9554C47.0504 25.6715 46.6582 25.5106 46.2483 25.5074C45.8383 25.5042 45.4435 25.659 45.1491 25.9384Z" fill="#049C6B"/>
</svg>
