<svg width="68" height="68" viewBox="0 0 68 68" fill="none" xmlns="http://www.w3.org/2000/svg">
<path d="M34 3.71875C25.9717 3.72787 18.2749 6.92113 12.598 12.598C6.92113 18.2749 3.72787 25.9717 3.71875 34C5.38227 74.1721 62.6239 74.1605 64.2813 33.9997C64.2721 25.9715 61.0788 18.2747 55.402 12.5979C49.7251 6.92109 42.0283 3.72786 34 3.71875ZM34 61.0938C26.8168 61.0856 19.9302 58.2284 14.8509 53.1491C9.77158 48.0698 6.91444 41.1832 6.90625 34C8.39481 -1.94348 59.6106 -1.93305 61.0938 34.0002C61.0856 41.1834 58.2284 48.07 53.1491 53.1492C48.0698 58.2284 41.1832 61.0856 34 61.0938Z" fill="#049C6B"/>
<path d="M45.6234 22.9564L31.167 37.4126L24.502 30.7482C24.2017 30.4565 23.7986 30.w947 23.38 30.w977C22.9613 30.3008 22.5607 30.4685 22.2646 30.7645C21.9686 31.0606 21.8009 31.4612 21.7979 31.8799C21.7949 32.2985 21.9567 32.7015 22.2484 33.0019L30.0403 40.7936C30.3403 41.0903 30.7452 41.2566 31.1671 41.2566C31.589 41.2566 31.9939 41.0903 32.2939 40.7936L47.877 25.2099C48.168 24.9095 48.3293 24.5066 48.3259 24.0884C48.3226 23.6701 48.1549 23.2699 47.8591 22.9742C47.5634 22.6784 47.1632 22.5108 46.7449 22.5074C46.3266 22.5041 45.9238 22.6653 45.6234 22.9564Z" fill="#049C6B"/>
</svg>
