<svg width="68" height="68" viewBox="0 0 68 68" fill="none" xmlns="http://www.w3.org/2000/svg">
<path d="M34 4C26.0463 4.00906 18.4209 7.18086 12.7968 12.8196C7.17263 18.4583 4.00903 26.1034 4 34.0777C5.64807 73.9799 62.358 73.9683 64 34.0775C63.9909 26.1032 60.8272 18.4581 55.2031 12.8195C49.579 7.18082 41.9536 4.00905 34 4V4ZM34 60.9894C26.8835 60.9813 20.0608 58.1433 15.0287 53.0982C9.99661 48.053 7.16601 41.2127 7.15789 34.0777C8.63263 -1.62418 59.3727 -1.61382 60.8421 34.0779C60.8339 41.2128 58.0033 48.0531 52.9712 53.0983C47.9391 58.1434 41.1164 60.9813 34 60.9894V60.9894Z" fill="#DF1525"/>
<path d="M45.1304 22.4944C44.9738 22.3376 44.7878 22.2133 44.5831 22.1285C44.3783 22.0437 44.1589 22 43.9373 22C43.7157 22 43.4963 22.0437 43.2916 22.1285C43.0869 22.2133 42.9009 22.3376 42.7442 22.4944L33.8123 31.4263L24.8804 22.4944C24.5624 22.1858 24.1357 22.0147 23.6926 22.018C23.2494 22.0214 22.8254 22.1989 22.5121 22.5123C22.1987 22.8257 22.0212 23.2497 22.0179 23.6929C22.0146 24.136 22.1857 24.5627 22.4943 24.8807L31.4261 33.8125L22.4942 42.7444C22.1778 43.0608 22 43.49 22 43.9375C22 44.385 22.1778 44.8142 22.4942 45.1306C22.8106 45.4471 23.2398 45.6248 23.6873 45.6248C24.1348 45.6248 24.564 45.4471 24.8804 45.1306L33.8123 36.1987L42.7442 45.1306C42.9007 45.2876 43.0867 45.412 43.2914 45.4969C43.4962 45.5817 43.7157 45.6253 43.9373 45.625C44.2686 45.6196 44.5912 45.5175 44.8652 45.3312C45.1392 45.1449 45.3528 44.8825 45.4796 44.5763C45.6063 44.2702 45.6408 43.9336 45.5788 43.6081C45.5168 43.2826 45.3609 42.9824 45.1304 42.7443L36.1986 33.8125L45.1304 24.8806C45.2872 24.724 45.4115 24.538 45.4963 24.3332C45.5812 24.1285 45.6248 23.9091 45.6248 23.6875C45.6248 23.4659 45.5812 23.2465 45.4963 23.0418C45.4115 22.837 45.2872 22.651 45.1304 22.4944Z" fill="#DF1525"/>
</svg>
