<svg width="24" height="24" viewBox="0 0 24 24" fill="none" xmlns="http://www.w3.org/2000/svg">
<path d="M20.4725 17.8829H14" stroke="#4A3F35" stroke-width="1.5" stroke-linecap="round" stroke-linejoin="round"/>
<path fill-rule="evenodd" clip-rule="evenodd" d="M5 17.8839C5 19.9257 5.68089 20.6057 7.72179 20.6057C9.76268 20.6057 10.4436 19.9257 10.4436 17.8839C10.4436 15.8421 9.76268 15.1621 7.72179 15.1621C5.68089 15.1621 5 15.8421 5 17.8839Z" stroke="#4A3F35" stroke-width="1.5" stroke-linecap="round" stroke-linejoin="round"/>
<path d="M14.1768 7.39439H20.6484" stroke="#4A3F35" stroke-width="1.5" stroke-linecap="round" stroke-linejoin="round"/>
<path fill-rule="evenodd" clip-rule="evenodd" d="M10.1154 7.39293C10.1154 5.35204 9.43448 4.67114 7.39358 4.67114C5.35179 4.67114 4.6709 5.35204 4.6709 7.39293C4.6709 9.43472 5.35179 10.1147 7.39358 10.1147C9.43448 10.1147 10.1154 9.43472 10.1154 7.39293Z" stroke="#4A3F35" stroke-width="1.5" stroke-linecap="round" stroke-linejoin="round"/>
</svg>
