<svg width="24" height="24" viewBox="0 0 24 24" fill="none" xmlns="http://www.w3.org/2000/svg">
<rect x="5.99982" y="15.0001" width="2" height="2" fill="#4A3F35"/>
<rect x="5.99982" y="17.0001" width="2" height="2" fill="#4A3F35"/>
<rect x="2.99982" y="17.0001" width="3" height="2" fill="#4A3F35"/>
<rect x="9.99982" y="15.0001" width="3" height="3" fill="#4A3F35"/>
<rect x="4.99982" y="21.0001" width="3" height="2" fill="#4A3F35"/>
<rect x="11.9998" y="19.0001" width="2" height="2" fill="#4A3F35"/>
<rect x="9.99982" y="21.0001" width="4" height="2" fill="#4A3F35"/>
<rect x="16.9998" y="21.0001" width="2" height="2" fill="#4A3F35"/>
<rect x="16.9998" y="19.0001" width="4" height="2" fill="#4A3F35"/>
<rect x="18.9998" y="16.0001" width="2" height="2" fill="#4A3F35"/>
<rect x="14.9998" y="15.0001" width="2" height="2" fill="#4A3F35"/>
<path d="M22.582 12.8001H1.45001" stroke="#4A3F35" stroke-width="1.5" stroke-linecap="round" stroke-linejoin="round"/>
<path d="M2.99609 8.72001C3.56609 5.24001 5.28609 3.52001 8.76609 2.95001" stroke="#4A3F35" stroke-width="1.5" stroke-linecap="round" stroke-linejoin="round"/>
<path d="M15.2661 2.95001C18.7461 3.52001 20.4661 5.24001 21.0361 8.72001" stroke="#4A3F35" stroke-width="1.5" stroke-linecap="round" stroke-linejoin="round"/>
</svg>
