<svg width="30" height="30" viewBox="0 0 30 30" fill="none" xmlns="http://www.w3.org/2000/svg">
<path fill-rule="evenodd" clip-rule="evenodd" d="M9.53738 9.55029C5.06238 9.96279 3.43738 11.6378 3.43738 18.3003C3.43738 27.1765 6.32488 27.1765 14.9999 27.1765C23.6749 27.1765 26.5624 27.1765 26.5624 18.3003C26.5624 11.6378 24.9374 9.96279 20.4624 9.55029" fill="#FF6600"/>
<path d="M9.53738 9.55029C5.06238 9.96279 3.43738 11.6378 3.43738 18.3003C3.43738 27.1765 6.32488 27.1765 14.9999 27.1765C23.6749 27.1765 26.5624 27.1765 26.5624 18.3003C26.5624 11.6378 24.9374 9.96279 20.4624 9.55029" stroke="#4A3F35" stroke-width="1.5" stroke-linecap="round" stroke-linejoin="round"/>
<path d="M15.1508 2.76125V17.8125" stroke="#4A3F35" stroke-width="1.5" stroke-linecap="round" stroke-linejoin="round"/>
<path d="M11.5057 6.41968L15.1507 2.75968L18.7957 6.41968" stroke="#4A3F35" stroke-width="1.5" stroke-linecap="round" stroke-linejoin="round"/>
</svg>
