<svg width="254" height="24" viewBox="0 0 254 24" fill="none" xmlns="http://www.w3.org/2000/svg">
<rect width="8" height="24" fill="#4A3F35"/>
<rect x="28" width="2" height="24" fill="#4A3F35"/>
<rect x="10" width="2" height="24" fill="#4A3F35"/>
<rect x="32" width="2" height="24" fill="#4A3F35"/>
<rect x="86" width="2" height="24" fill="#4A3F35"/>
<rect x="36" width="2" height="24" fill="#4A3F35"/>
<rect x="90" width="2" height="24" fill="#4A3F35"/>
<rect x="120" width="2" height="24" fill="#4A3F35"/>
<rect x="172" width="2" height="24" fill="#4A3F35"/>
<rect x="16" width="8" height="24" fill="#4A3F35"/>
<rect x="42" width="16" height="24" fill="#4A3F35"/>
<rect x="62" width="8" height="24" fill="#4A3F35"/>
<rect x="74" width="8" height="24" fill="#4A3F35"/>
<rect x="96" width="8" height="24" fill="#4A3F35"/>
<rect x="108" width="8" height="24" fill="#4A3F35"/>
<rect x="126" width="8" height="24" fill="#4A3F35"/>
<rect x="202" width="8" height="24" fill="#4A3F35"/>
<rect x="214" width="8" height="24" fill="#4A3F35"/>
<rect x="178" width="8" height="24" fill="#4A3F35"/>
<rect x="138" width="2" height="24" fill="#4A3F35"/>
<rect x="190" width="2" height="24" fill="#4A3F35"/>
<rect x="196" width="2" height="24" fill="#4A3F35"/>
<rect x="246" width="2" height="24" fill="#4A3F35"/>
<rect x="252" width="2" height="24" fill="#4A3F35"/>
<rect x="142" width="2" height="24" fill="#4A3F35"/>
<rect x="146" width="2" height="24" fill="#4A3F35"/>
<rect x="152" width="16" height="24" fill="#4A3F35"/>
<rect x="226" width="16" height="24" fill="#4A3F35"/>
</svg>
