<svg width="72" height="52" viewBox="0 0 72 52" fill="none" xmlns="http://www.w3.org/2000/svg">
<path d="M99.75 2C99.75 29.4762 77.4762 51.75 50 51.75C22.5238 51.75 0.25 29.4762 0.25 2C0.25 -25.4762 22.5238 -47.75 50 -47.75C77.4762 -47.75 99.75 -25.4762 99.75 2ZM94.75 2C94.75 26.7147 74.7147 46.75 50 46.75C25.2853 46.75 5.25 26.7147 5.25 2C5.25 -22.7147 25.2853 -42.75 50 -42.75C74.7147 -42.75 94.75 -22.7147 94.75 2ZM50 47.25C74.9909 47.25 95.25 26.9909 95.25 2C95.25 -22.9909 74.9909 -43.25 50 -43.25C25.0091 -43.25 4.75 -22.9909 4.75 2C4.75 26.9909 25.0091 47.25 50 47.25ZM89.75 2C89.75 23.9533 71.9533 41.75 50 41.75C28.0467 41.75 10.25 23.9533 10.25 2C10.25 -19.9533 28.0467 -37.75 50 -37.75C71.9533 -37.75 89.75 -19.9533 89.75 2ZM50 42.25C72.2295 42.25 90.25 24.2295 90.25 2C90.25 -20.2295 72.2295 -38.25 50 -38.25C27.7705 -38.25 9.75 -20.2295 9.75 2C9.75 24.2295 27.7705 42.25 50 42.25ZM84.75 2C84.75 21.1919 69.1919 36.75 50 36.75C30.8081 36.75 15.25 21.1919 15.25 2C15.25 -17.1919 30.8081 -32.75 50 -32.75C69.1919 -32.75 84.75 -17.1919 84.75 2ZM50 37.25C69.468 37.25 85.25 21.468 85.25 2C85.25 -17.468 69.468 -33.25 50 -33.25C30.532 -33.25 14.75 -17.468 14.75 2C14.75 21.468 30.532 37.25 50 37.25ZM79.75 2C79.75 18.4305 66.4305 31.75 50 31.75C33.5695 31.75 20.25 18.4305 20.25 2C20.25 -14.4305 33.5695 -27.75 50 -27.75C66.4305 -27.75 79.75 -14.4305 79.75 2ZM50 32.25C66.7066 32.25 80.25 18.7066 80.25 2C80.25 -14.7066 66.7066 -28.25 50 -28.25C33.2934 -28.25 19.75 -14.7066 19.75 2C19.75 18.7066 33.2934 32.25 50 32.25Z" stroke="#4A3F35" stroke-opacity="0.2" stroke-width="0.5"/>
</svg>
