<svg width="12" height="20" viewBox="0 0 12 20" fill="none" xmlns="http://www.w3.org/2000/svg">
<path d="M3.96359 10.0008C3.9636 8.3794 3.29516 6.85399 2.08122 5.70874C1.60479 5.25851 0.833759 5.25851 0.357325 5.70874C-0.119108 6.15897 -0.119109 6.88759 0.357325 7.33782C1.11007 8.04821 1.52555 8.99475 1.52555 10.0018C1.52555 11.0088 1.11109 11.9544 0.357325 12.6657C0.119616 12.8913 0.000761409 13.186 0.000761397 13.4807C0.000761384 13.7755 0.119616 14.0702 0.357325 14.2948C0.832743 14.745 1.60479 14.745 2.08122 14.2948C3.29516 13.1486 3.96359 11.6232 3.96359 10.0027L3.96359 10.0008Z" fill="#4A3F35"/>
<path d="M7.97722 10.0008C7.97722 7.36568 6.89128 4.88892 4.91951 3.0256C4.44308 2.57633 3.67205 2.57633 3.19561 3.0256C2.71918 3.47583 2.71918 4.20542 3.19561 4.65469C4.7072 6.08218 5.53918 7.98102 5.53918 10.0008C5.53918 12.0206 4.7072 13.9185 3.19561 15.346C2.9579 15.5706 2.83905 15.8663 2.83905 16.1601C2.83905 16.4538 2.9579 16.7495 3.19561 16.9751C3.67103 17.4244 4.44308 17.4244 4.91951 16.9751C6.89128 15.1118 7.97722 12.636 7.97722 10.0008Z" fill="#4A3F35"/>
<path d="M7.7639 19.664C10.4955 17.0826 12 13.6516 12 10.0008C12 6.35003 10.4955 2.91906 7.7639 0.337673C7.28747 -0.112558 6.51644 -0.112558 6.04 0.337673C5.8023 0.563268 5.68344 0.857983 5.68344 1.1527C5.68344 1.44741 5.8023 1.74308 6.04 1.96676C8.31145 4.11232 9.56196 6.96634 9.56196 10.0008C9.56196 13.0353 8.31145 15.8884 6.04 18.034C5.56357 18.4832 5.56459 19.2128 6.04 19.663C6.51644 20.1123 7.28848 20.1123 7.7639 19.663L7.7639 19.664Z" fill="#4A3F35"/>
</svg>
