<svg width="58" height="36" viewBox="0 0 58 36" fill="none" xmlns="http://www.w3.org/2000/svg">
<path d="M21.1591 3.85H36.8413V32.15H21.1591V3.85Z" fill="#FF5F00"/>
<path d="M22.1544 18C22.1544 12.2501 24.8427 7.14998 28.9747 3.8499C25.9381 1.44995 22.1047 0 17.9228 0C8.01527 0 0 8.04988 0 18C0 27.9499 8.01527 36 17.9226 36C22.1045 36 25.9379 34.5501 28.9747 32.1499C24.8427 28.8999 22.1544 23.7499 22.1544 18Z" fill="#EB001B"/>
<path d="M58 18C58 27.9499 49.9847 36 40.0774 36C35.8955 36 32.0621 34.5501 29.0253 32.1499C33.2072 28.85 35.8458 23.7499 35.8458 18C35.8458 12.2501 33.1573 7.14998 29.0253 3.8499C32.0619 1.44995 35.8955 0 40.0774 0C49.9847 0 58 8.09999 58 18Z" fill="#F79E1B"/>
</svg>
